<?xml version="1.0" encoding="utf-8"?>
<!-- Generator: Adobe Illustrator 27.9.2, SVG Export Plug-In . SVG Version: 6.00 Build 0)  -->
<svg version="1.1" id="圖層_1" xmlns="http://www.w3.org/2000/svg" xmlns:xlink="http://www.w3.org/1999/xlink" x="0px" y="0px"
	 viewBox="0 0 16 16" style="enable-background:new 0 0 16 16;" xml:space="preserve">
<style type="text/css">
	.st0{fill:#1B4965;}
</style>
<path class="st0" d="M13.5,2.9c-1-0.5-2.1-0.8-3.3-1c0,0,0,0-0.1,0c-0.1,0.2-0.3,0.6-0.4,0.8c-1.2-0.2-2.4-0.2-3.7,0
	C6.1,2.5,5.9,2.2,5.8,1.9c0,0,0,0-0.1,0c-1.1,0.2-2.2,0.5-3.3,1c0,0,0,0,0,0C0.4,6-0.2,9,0.1,12c0,0,0,0,0,0c1.2,0.9,2.6,1.6,4,2
	c0,0,0,0,0.1,0c0.3-0.4,0.6-0.9,0.8-1.3c0,0,0,0,0-0.1l0,0c-0.4-0.2-0.8-0.4-1.2-0.6c0,0,0,0,0-0.1l0,0c0.1-0.1,0.2-0.1,0.2-0.2
	c0,0,0,0,0.1,0c2.6,1.2,5.5,1.2,8,0c0,0,0,0,0.1,0c0.1,0.1,0.2,0.1,0.2,0.2c0,0,0,0,0,0.1c0,0,0,0,0,0c-0.4,0.2-0.8,0.4-1.2,0.6
	c0,0,0,0,0,0c0,0,0,0,0,0c0.2,0.5,0.5,0.9,0.8,1.3c0,0,0,0,0.1,0c1.4-0.4,2.8-1.1,4-2c0,0,0,0,0,0C16.3,8.6,15.4,5.6,13.5,2.9
	C13.6,2.9,13.6,2.9,13.5,2.9 M5.3,10.2c-0.8,0-1.4-0.7-1.4-1.6S4.5,7,5.3,7c0.8,0,1.4,0.7,1.4,1.6C6.8,9.5,6.1,10.2,5.3,10.2
	 M10.7,10.2c-0.8,0-1.4-0.7-1.4-1.6S9.9,7,10.7,7c0.8,0,1.5,0.7,1.4,1.6C12.1,9.5,11.5,10.2,10.7,10.2"/>
</svg>
